<?xml version="1.0" standalone="no"?>
<!DOCTYPE svg PUBLIC "-//W3C//DTD SVG 20010904//EN"
 "http://www.w3.org/TR/2001/REC-SVG-20010904/DTD/svg10.dtd">
<svg version="1.0" xmlns="http://www.w3.org/2000/svg"
 width="120.000000pt" height="120.000000pt" viewBox="0 0 120.000000 120.000000"
 preserveAspectRatio="xMidYMid meet">
<metadata>
Created by potrace 1.11, written by Peter Selinger 2001-2013
</metadata>
<g transform="translate(0.000000,120.000000) scale(0.100000,-0.100000)"
fill="#000000" stroke="none">
<path d="M339 1124 c-7 -9 -18 -62 -24 -117 l-10 -101 -120 -24 c-66 -13 -126
-29 -133 -34 -6 -6 -12 -20 -12 -33 0 -12 33 -183 74 -379 49 -237 79 -363 90
-374 15 -15 27 -14 160 12 l144 28 21 -21 c12 -12 27 -21 35 -21 7 0 136 11
287 25 151 14 280 25 288 25 10 0 12 10 8 44 -4 29 -2 46 5 48 8 3 2 102 -21
348 -17 190 -31 351 -31 358 0 8 -16 12 -46 12 l-47 0 6 80 c4 44 3 80 -1 80
-4 0 -142 13 -307 30 -351 35 -349 35 -366 14z m99 -740 c49 -6 52 -8 52 -35
0 -25 -4 -29 -27 -29 -63 1 -166 19 -173 31 -23 37 24 47 148 33z m674 -214
c3 -17 2 -33 -1 -35 -4 -2 -129 -13 -279 -26 -287 -23 -311 -22 -286 19 9 14
54 21 275 43 145 15 269 27 275 28 7 0 14 -13 16 -29z m-602 -9 c0 -33 7 -30
-188 -67 -72 -14 -95 -15 -104 -6 -27 27 6 46 128 74 159 35 164 35 164 -1z"/>
</g>
</svg>
